<?xml version="1.0" encoding="utf-8"?>
<!-- Generator: Adobe Illustrator 16.0.0, SVG Export Plug-In . SVG Version: 6.00 Build 0)  -->
<!DOCTYPE svg PUBLIC "-//W3C//DTD SVG 1.1//EN" "http://www.w3.org/Graphics/SVG/1.1/DTD/svg11.dtd">
<svg version="1.1" id="Calque_1" xmlns="http://www.w3.org/2000/svg" xmlns:xlink="http://www.w3.org/1999/xlink" x="0px" y="0px"
	 width="108.824px" height="19.013px" viewBox="-4.745 42.575 108.824 19.013"
	 enable-background="new -4.745 42.575 108.824 19.013" xml:space="preserve">
<g>
	<path fill="#FFFFFF" d="M-1.088,43.817c0.19-0.2,0.303-0.38,0.34-0.539c0.037-0.158,0.014-0.269-0.071-0.332
		c-0.085-0.063-0.217-0.074-0.396-0.031c-0.18,0.042-0.386,0.152-0.618,0.332c-0.464,0.39-0.858,0.9-1.18,1.529
		c-0.322,0.628-0.584,1.312-0.784,2.05c-0.201,0.739-0.348,1.503-0.443,2.289s-0.143,1.534-0.143,2.241
		c0,0.338,0.019,0.651,0.055,0.943c0.038,0.29,0.087,0.54,0.151,0.751c0.063,0.212,0.14,0.378,0.229,0.499
		c0.089,0.122,0.193,0.184,0.309,0.184c0.18,0,0.359-0.086,0.538-0.254c0.18-0.169,0.346-0.376,0.499-0.617
		c0.153-0.243,0.285-0.508,0.396-0.793c0.111-0.284,0.192-0.538,0.246-0.76l-1.045,0.142l-0.032-0.316l2.661-0.396l0.063,0.333
		l-1.314,0.221c-0.074,0.327-0.174,0.644-0.301,0.95c-0.116,0.264-0.266,0.544-0.451,0.84c-0.184,0.296-0.425,0.554-0.721,0.776
		c-0.338,0.222-0.62,0.263-0.847,0.127c-0.227-0.138-0.404-0.398-0.531-0.785c-0.126-0.385-0.208-0.868-0.245-1.449
		c-0.037-0.58-0.027-1.206,0.031-1.877c0.059-0.669,0.161-1.356,0.309-2.059s0.335-1.368,0.563-1.995
		c0.227-0.63,0.491-1.19,0.792-1.688c0.301-0.497,0.642-0.876,1.022-1.14c0.316-0.232,0.607-0.367,0.871-0.405
		c0.264-0.036,0.465,0,0.602,0.11c0.137,0.112,0.191,0.286,0.159,0.524c-0.032,0.237-0.185,0.504-0.459,0.8L-1.088,43.817z"/>
	<path fill="#FFFFFF" d="M1.525,54.002c-0.031,0.052-0.09,0.103-0.174,0.15c-0.084,0.047-0.18,0.07-0.285,0.07
		c-0.106,0-0.198-0.061-0.277-0.182c-0.079-0.121-0.143-0.285-0.19-0.491c-0.048-0.205-0.084-0.446-0.11-0.721
		c-0.027-0.273-0.04-0.565-0.04-0.871c0-0.612,0.026-1.192,0.079-1.742c0.052-0.548,0.132-1.031,0.237-1.449
		C0.871,48.35,1,48.018,1.153,47.77c0.153-0.248,0.335-0.372,0.547-0.372c0.21,0,0.382,0.116,0.514,0.348
		c0.132,0.233,0.235,0.486,0.309,0.761c0.084,0.326,0.137,0.69,0.158,1.094H0.907c-0.053,0.338-0.09,0.722-0.111,1.155
		c-0.021,0.433-0.032,0.834-0.032,1.203c0,0.57,0.032,1.027,0.095,1.371c0.063,0.343,0.148,0.514,0.253,0.514
		c0.011,0,0.032-0.005,0.064-0.016c0.021-0.011,0.048-0.021,0.079-0.031c0.032-0.011,0.063-0.037,0.095-0.079L1.525,54.002z
		 M2.349,49.282c-0.01-0.128-0.029-0.28-0.056-0.46c-0.026-0.18-0.065-0.348-0.118-0.507c-0.054-0.158-0.119-0.296-0.198-0.412
		c-0.079-0.116-0.172-0.174-0.277-0.174c-0.18,0-0.328,0.145-0.444,0.436c-0.115,0.29-0.216,0.663-0.3,1.117H2.349L2.349,49.282z"/>
	<path fill="#FFFFFF" d="M1.984,45.56c0.423,0,0.855-0.021,1.299-0.063c0.443-0.042,0.887-0.106,1.331-0.191
		c0.053-0.254,0.105-0.482,0.158-0.689c0.053-0.205,0.1-0.383,0.143-0.529c0.042-0.181,0.079-0.339,0.111-0.476l0.301,0.078
		c-0.031,0.128-0.069,0.271-0.11,0.429c-0.032,0.138-0.072,0.301-0.119,0.491c-0.048,0.19-0.098,0.401-0.151,0.633
		c0.412-0.072,0.818-0.155,1.22-0.245c0.401-0.09,0.786-0.183,1.156-0.277c0.602-0.146,1.148-0.271,1.639-0.372
		c0.491-0.099,0.884-0.15,1.18-0.15c0.613,0,0.919,0.217,0.919,0.649h-0.316c0-0.221-0.201-0.333-0.603-0.333
		c-0.253,0-0.568,0.037-0.942,0.112c-0.375,0.072-0.792,0.166-1.251,0.275c-0.459,0.112-0.95,0.229-1.473,0.35
		c-0.522,0.12-1.059,0.235-1.608,0.34c-0.116,0.519-0.238,1.093-0.364,1.727c-0.127,0.635-0.246,1.275-0.356,1.925
		c-0.111,0.648-0.203,1.28-0.277,1.893c-0.074,0.612-0.111,1.156-0.111,1.631c0,0.359,0.018,0.645,0.055,0.856
		c0.038,0.211,0.098,0.316,0.182,0.316c0.053,0,0.095-0.012,0.127-0.032l0.158,0.27c-0.094,0.053-0.19,0.079-0.285,0.079
		c-0.2,0-0.343-0.134-0.427-0.403c-0.085-0.27-0.127-0.632-0.127-1.086c0-0.464,0.034-0.999,0.103-1.606
		c0.069-0.607,0.159-1.233,0.269-1.877c0.112-0.645,0.23-1.281,0.356-1.909c0.127-0.628,0.249-1.206,0.365-1.735
		c-0.433,0.075-0.863,0.136-1.291,0.184c-0.427,0.047-0.847,0.065-1.259,0.055V45.56L1.984,45.56z"/>
	<path fill="#FFFFFF" d="M11.931,52.924c-0.286,0.243-0.563,0.417-0.832,0.524c-0.27,0.104-0.478,0.157-0.626,0.157
		c-0.348,0-0.604-0.156-0.768-0.467c-0.163-0.312-0.246-0.699-0.246-1.165c0-0.243,0.021-0.499,0.063-0.768
		c0.042-0.269,0.106-0.533,0.19-0.793c0.084-0.258,0.187-0.503,0.309-0.735s0.262-0.443,0.42-0.633
		c0.274-0.317,0.512-0.528,0.712-0.634c0.201-0.106,0.375-0.159,0.523-0.159c0.147,0,0.267,0.043,0.356,0.126
		c0.089,0.086,0.16,0.175,0.213,0.271c0.064,0.116,0.111,0.249,0.143,0.396l-0.317,0.047c-0.011-0.095-0.038-0.181-0.079-0.254
		c-0.032-0.063-0.072-0.124-0.119-0.182c-0.048-0.058-0.113-0.087-0.198-0.087c-0.095,0-0.228,0.045-0.396,0.134
		c-0.169,0.09-0.375,0.272-0.617,0.546c-0.275,0.34-0.492,0.76-0.65,1.269c-0.159,0.507-0.238,0.992-0.238,1.456
		c0,0.37,0.056,0.682,0.167,0.936c0.11,0.253,0.287,0.379,0.53,0.379c0.159,0,0.338-0.047,0.539-0.142
		c0.201-0.096,0.438-0.248,0.713-0.46L11.931,52.924z"/>
	<path fill="#FFFFFF" d="M15.685,50.834c0.042-0.286,0.071-0.55,0.087-0.792c0.016-0.243,0.023-0.465,0.023-0.666
		c0-0.348-0.021-0.635-0.063-0.863c-0.043-0.227-0.101-0.405-0.175-0.537c-0.073-0.132-0.161-0.228-0.261-0.286
		c-0.101-0.058-0.204-0.087-0.309-0.087c-0.149,0-0.296,0.039-0.444,0.119c-0.147,0.08-0.279,0.161-0.396,0.246
		c-0.137,0.104-0.275,0.221-0.412,0.348l-0.238-0.222c0.148-0.146,0.307-0.28,0.475-0.396c0.148-0.105,0.309-0.201,0.483-0.285
		c0.175-0.085,0.352-0.127,0.531-0.127c0.147,0,0.29,0.031,0.427,0.095c0.137,0.063,0.256,0.174,0.356,0.332
		c0.101,0.159,0.182,0.374,0.245,0.643c0.064,0.27,0.096,0.609,0.096,1.021c0,0.412-0.061,1.094-0.182,2.044
		c-0.122,0.951-0.347,2.101-0.674,3.452l-0.332-0.062c0.18-0.762,0.327-1.442,0.443-2.045s0.211-1.146,0.285-1.631
		c-0.074-0.011-0.137-0.018-0.19-0.022c-0.053-0.006-0.101-0.01-0.143-0.01c-0.317,0-0.612,0.063-0.887,0.19
		s-0.513,0.285-0.713,0.476c-0.201,0.189-0.359,0.401-0.475,0.633c-0.117,0.234-0.174,0.45-0.174,0.649
		c0,0.19,0.074,0.349,0.222,0.476c0.148,0.127,0.391,0.19,0.729,0.19c0.232,0,0.512-0.037,0.839-0.111l0.063,0.317
		c-0.328,0.073-0.629,0.111-0.903,0.111c-0.454,0-0.779-0.096-0.974-0.285c-0.196-0.191-0.293-0.423-0.293-0.698
		c0-0.243,0.066-0.495,0.198-0.76c0.132-0.264,0.312-0.506,0.539-0.729c0.227-0.221,0.496-0.406,0.808-0.553
		c0.311-0.149,0.652-0.222,1.021-0.222L15.685,50.834z"/>
	<path fill="#FFFFFF" d="M18.187,46.763c-0.358,1.395-0.609,2.542-0.752,3.445c-0.143,0.904-0.214,1.63-0.214,2.179
		c0,0.622,0.073,1.051,0.222,1.282c0.148,0.232,0.322,0.349,0.522,0.349c0.148,0,0.293-0.036,0.436-0.111
		c0.142-0.073,0.272-0.151,0.388-0.237c0.137-0.104,0.274-0.227,0.412-0.364l0.174,0.175l0.792-5.591l0.348,0.062l-0.95,6.526
		l-0.317-0.048l0.111-0.823c-0.042,0.042-0.109,0.102-0.198,0.182c-0.09,0.08-0.199,0.159-0.325,0.237
		c-0.127,0.08-0.265,0.151-0.413,0.215s-0.3,0.096-0.459,0.096c-0.148,0-0.285-0.032-0.412-0.096s-0.238-0.169-0.333-0.316
		c-0.095-0.148-0.172-0.35-0.23-0.603c-0.058-0.253-0.087-0.564-0.087-0.934c0-0.56,0.071-1.297,0.213-2.211
		c0.143-0.912,0.399-2.077,0.768-3.492L18.187,46.763z"/>
	<path fill="#FFFFFF" d="M36.18,56.408c-1.31-0.053-2.524-0.091-3.643-0.118c-1.12-0.025-2.165-0.04-3.136-0.04
		c-1.331,0-2.514,0.019-3.548,0.057c-1.035,0.037-1.948,0.098-2.74,0.182l-0.76,5.1c-0.814-0.338-1.537-0.69-2.17-1.061
		c-0.274-0.158-0.539-0.328-0.792-0.508c-0.254-0.179-0.483-0.363-0.689-0.554c-0.206-0.19-0.37-0.382-0.491-0.578
		c-0.122-0.196-0.182-0.394-0.182-0.594c0-0.223,0.082-0.434,0.245-0.634c0.164-0.2,0.433-0.391,0.808-0.57
		c0.375-0.18,0.869-0.343,1.481-0.491c0.613-0.146,1.373-0.274,2.281-0.379l0.475-3.186c-0.264,0.202-0.518,0.347-0.76,0.437
		c-0.243,0.09-0.428,0.135-0.555,0.135c-0.348,0-0.604-0.156-0.768-0.467c-0.164-0.311-0.245-0.699-0.245-1.165
		c0-0.243,0.021-0.499,0.063-0.768c0.042-0.269,0.105-0.533,0.189-0.793c0.084-0.258,0.188-0.503,0.309-0.735
		s0.262-0.443,0.419-0.633c0.274-0.317,0.512-0.528,0.713-0.634c0.201-0.106,0.375-0.159,0.523-0.159s0.267,0.043,0.356,0.126
		c0.09,0.086,0.16,0.175,0.213,0.271c0.063,0.116,0.111,0.249,0.143,0.396l-0.317,0.047c-0.01-0.095-0.037-0.181-0.079-0.254
		c-0.032-0.063-0.072-0.124-0.119-0.182c-0.048-0.058-0.114-0.087-0.198-0.087c-0.095,0-0.227,0.045-0.396,0.134
		c-0.169,0.09-0.375,0.272-0.618,0.546c-0.275,0.34-0.492,0.76-0.649,1.269c-0.159,0.507-0.238,0.992-0.238,1.456
		c0,0.37,0.056,0.682,0.167,0.936c0.111,0.253,0.287,0.379,0.53,0.379c0.148,0,0.349-0.06,0.602-0.182
		c0.254-0.121,0.518-0.304,0.792-0.546l0.634-4.198l0.316,0.049l-1.188,7.776c0.802-0.085,1.716-0.148,2.74-0.189
		c1.024-0.043,2.191-0.063,3.501-0.063c0.242,0,0.525,0.002,0.847,0.007c0.322,0.006,0.666,0.014,1.03,0.024
		c0.364,0.011,0.736,0.018,1.116,0.023c0.381,0.005,0.755,0.013,1.125,0.023c0.854,0.032,1.747,0.058,2.676,0.079L36.18,56.408z
		 M18.345,58.294c0,0.169,0.053,0.34,0.159,0.516c0.105,0.174,0.245,0.343,0.42,0.506c0.173,0.163,0.375,0.323,0.602,0.475
		c0.228,0.153,0.457,0.298,0.689,0.436c0.549,0.317,1.177,0.624,1.885,0.92l0.697-4.625c-0.845,0.094-1.55,0.205-2.115,0.332
		s-1.021,0.267-1.37,0.421c-0.349,0.152-0.596,0.315-0.744,0.489C18.419,57.938,18.345,58.115,18.345,58.294z"/>
	<path fill="#FFFFFF" d="M25.251,53.368l1.52-10.564l0.317,0.048l-0.76,5.354c0.042-0.043,0.11-0.106,0.206-0.19
		s0.206-0.166,0.333-0.245c0.126-0.08,0.264-0.147,0.412-0.207c0.147-0.057,0.295-0.087,0.443-0.087
		c0.137,0,0.272,0.031,0.404,0.096c0.132,0.063,0.245,0.171,0.34,0.325c0.095,0.152,0.171,0.353,0.229,0.602
		c0.058,0.247,0.087,0.558,0.087,0.925c0,0.562-0.071,1.297-0.213,2.211c-0.143,0.913-0.399,2.077-0.768,3.492L27.5,55.048
		c0.358-1.395,0.609-2.543,0.752-3.446c0.143-0.903,0.214-1.628,0.214-2.179c0-0.622-0.074-1.05-0.222-1.282
		c-0.148-0.231-0.322-0.349-0.522-0.349c-0.148,0-0.295,0.04-0.443,0.118c-0.148,0.08-0.28,0.162-0.396,0.247
		c-0.138,0.105-0.27,0.221-0.396,0.349l-0.174-0.159l-0.713,5.085L25.251,53.368z"/>
	<path fill="#FFFFFF" d="M28.64,45.56c0.423,0,0.855-0.021,1.299-0.063c0.444-0.042,0.887-0.106,1.331-0.191
		c0.053-0.254,0.105-0.482,0.159-0.689c0.053-0.205,0.1-0.383,0.142-0.529c0.042-0.181,0.079-0.339,0.111-0.476l0.301,0.078
		c-0.032,0.128-0.069,0.271-0.111,0.429c-0.032,0.138-0.072,0.301-0.119,0.491c-0.048,0.19-0.098,0.401-0.151,0.633
		c0.412-0.072,0.818-0.155,1.22-0.245c0.401-0.09,0.786-0.183,1.156-0.277c0.602-0.146,1.148-0.271,1.639-0.372
		c0.491-0.099,0.885-0.15,1.181-0.15c0.612,0,0.918,0.217,0.918,0.649h-0.317c0-0.221-0.2-0.333-0.601-0.333
		c-0.254,0-0.568,0.037-0.943,0.112c-0.375,0.072-0.792,0.166-1.251,0.275c-0.459,0.112-0.95,0.229-1.473,0.35
		c-0.522,0.12-1.059,0.235-1.607,0.34c-0.116,0.519-0.237,1.093-0.364,1.727c-0.127,0.635-0.246,1.275-0.356,1.925
		c-0.111,0.648-0.203,1.28-0.277,1.893c-0.074,0.612-0.111,1.156-0.111,1.631c0,0.359,0.019,0.645,0.055,0.856
		c0.038,0.211,0.098,0.316,0.183,0.316c0.053,0,0.095-0.012,0.127-0.032l0.159,0.27c-0.095,0.053-0.191,0.079-0.286,0.079
		c-0.201,0-0.343-0.134-0.427-0.403c-0.085-0.27-0.127-0.632-0.127-1.086c0-0.464,0.034-0.999,0.103-1.606
		c0.069-0.607,0.159-1.233,0.269-1.877c0.112-0.645,0.23-1.281,0.356-1.909c0.127-0.628,0.249-1.206,0.365-1.735
		c-0.433,0.075-0.863,0.136-1.291,0.184c-0.428,0.047-0.848,0.065-1.26,0.055V45.56L28.64,45.56z"/>
	<path fill="#FFFFFF" d="M41.026,49.045c0.179-0.181,0.34-0.307,0.483-0.382c0.143-0.072,0.267-0.11,0.373-0.11
		c0.137,0,0.24,0.063,0.308,0.19c0.069,0.126,0.103,0.296,0.103,0.506c0,0.361-0.097,0.808-0.292,1.341
		c-0.196,0.533-0.478,1.067-0.848,1.606c-0.433,0.687-0.792,1.172-1.077,1.457c-0.286,0.285-0.513,0.428-0.681,0.428
		c-0.19,0-0.319-0.143-0.388-0.428s-0.103-0.619-0.103-0.998v-0.269c-0.496,0.622-0.935,1.058-1.314,1.307
		c-0.381,0.248-0.628,0.371-0.745,0.371c-0.18,0-0.304-0.094-0.373-0.284c-0.068-0.191-0.103-0.439-0.103-0.746
		c0-0.231,0.016-0.484,0.047-0.76c0.032-0.273,0.074-0.562,0.127-0.861c0.052-0.301,0.113-0.605,0.182-0.912
		c0.068-0.307,0.14-0.601,0.214-0.887c0.168-0.665,0.364-1.347,0.586-2.043l0.301,0.095c-0.211,0.687-0.401,1.356-0.57,2.012
		c-0.074,0.286-0.146,0.578-0.214,0.879c-0.069,0.302-0.129,0.597-0.182,0.887c-0.053,0.291-0.095,0.573-0.126,0.848
		c-0.031,0.275-0.048,0.522-0.048,0.743c0,0.213,0.014,0.385,0.04,0.516c0.026,0.133,0.066,0.199,0.119,0.199
		c0.148,0,0.38-0.127,0.697-0.381s0.729-0.697,1.236-1.331l0.126,0.174c0.01-0.243,0.029-0.482,0.055-0.721
		c0.027-0.237,0.05-0.445,0.071-0.625c0.032-0.211,0.063-0.417,0.096-0.617l0.316,0.047c-0.043,0.253-0.079,0.518-0.111,0.791
		c-0.032,0.234-0.058,0.486-0.079,0.762c-0.021,0.274-0.032,0.543-0.032,0.808c0,0.296,0.01,0.556,0.032,0.776
		c0.021,0.222,0.068,0.332,0.143,0.332c0.116,0,0.293-0.131,0.53-0.396c0.238-0.265,0.557-0.713,0.958-1.346
		c0.359-0.519,0.631-1.028,0.816-1.529c0.185-0.502,0.277-0.916,0.277-1.244c0-0.252-0.031-0.379-0.094-0.379
		c-0.032,0-0.083,0.02-0.15,0.063c-0.069,0.042-0.141,0.089-0.214,0.144c-0.084,0.052-0.174,0.114-0.269,0.188L41.026,49.045z"/>
	<path fill="#FFFFFF" d="M42.784,54.002l0.697-5.64l0.316,0.032l-0.713,5.654L42.784,54.002z M43.592,47.491l0.206-1.52l0.301,0.063
		l-0.206,1.504L43.592,47.491z"/>
	<path fill="#FFFFFF" d="M43.64,45.56c0.422,0,0.855-0.021,1.298-0.063c0.444-0.042,0.888-0.106,1.331-0.191
		c0.053-0.254,0.105-0.482,0.158-0.689c0.053-0.205,0.101-0.383,0.143-0.529c0.042-0.181,0.08-0.339,0.111-0.476l0.3,0.078
		c-0.031,0.128-0.068,0.271-0.11,0.429c-0.032,0.138-0.071,0.301-0.119,0.491s-0.098,0.401-0.151,0.633
		c0.412-0.072,0.819-0.155,1.22-0.245s0.786-0.183,1.157-0.277c0.602-0.146,1.147-0.271,1.639-0.372
		c0.492-0.099,0.885-0.15,1.18-0.15c0.612,0,0.919,0.217,0.919,0.649h-0.316c0-0.221-0.2-0.333-0.603-0.333
		c-0.253,0-0.568,0.037-0.941,0.112c-0.375,0.072-0.792,0.166-1.252,0.275c-0.459,0.112-0.95,0.229-1.473,0.35
		c-0.523,0.12-1.059,0.235-1.608,0.34c-0.116,0.519-0.237,1.093-0.364,1.727c-0.127,0.635-0.245,1.275-0.356,1.925
		c-0.111,0.648-0.204,1.28-0.277,1.893s-0.111,1.156-0.111,1.631c0,0.359,0.019,0.645,0.056,0.856
		c0.037,0.211,0.097,0.316,0.182,0.316c0.053,0,0.095-0.012,0.127-0.032l0.159,0.27c-0.095,0.053-0.19,0.079-0.286,0.079
		c-0.201,0-0.343-0.134-0.427-0.403s-0.127-0.632-0.127-1.086c0-0.464,0.034-0.999,0.103-1.606c0.068-0.607,0.158-1.233,0.27-1.877
		c0.111-0.645,0.229-1.281,0.356-1.909c0.126-0.628,0.248-1.206,0.364-1.735c-0.433,0.075-0.862,0.136-1.291,0.184
		c-0.428,0.047-0.848,0.065-1.259,0.055V45.56L43.64,45.56z"/>
	<path fill="#FFFFFF" d="M47.441,53.368l1.521-10.564l0.316,0.048l-0.761,5.354c0.042-0.043,0.111-0.106,0.206-0.19
		s0.206-0.166,0.332-0.245c0.127-0.08,0.265-0.147,0.413-0.207c0.147-0.057,0.295-0.087,0.443-0.087
		c0.137,0,0.271,0.031,0.404,0.096c0.132,0.063,0.244,0.171,0.341,0.325c0.094,0.152,0.17,0.353,0.228,0.602
		c0.059,0.247,0.088,0.558,0.088,0.925c0,0.562-0.071,1.297-0.214,2.211c-0.143,0.913-0.397,2.077-0.768,3.492l-0.302-0.078
		c0.359-1.395,0.61-2.543,0.753-3.446c0.142-0.903,0.215-1.628,0.215-2.179c0-0.622-0.075-1.05-0.224-1.282
		c-0.147-0.231-0.321-0.349-0.521-0.349c-0.148,0-0.296,0.04-0.443,0.118c-0.148,0.08-0.28,0.162-0.396,0.247
		c-0.138,0.105-0.269,0.221-0.396,0.349l-0.174-0.159l-0.713,5.085L47.441,53.368z"/>
	<path fill="#FFFFFF" d="M58.512,50.834c0.042-0.286,0.07-0.55,0.087-0.792c0.017-0.243,0.024-0.465,0.024-0.666
		c0-0.348-0.021-0.635-0.063-0.863c-0.043-0.227-0.101-0.405-0.175-0.537c-0.073-0.132-0.161-0.228-0.261-0.286
		c-0.101-0.058-0.204-0.087-0.308-0.087c-0.149,0-0.296,0.039-0.445,0.119c-0.146,0.08-0.28,0.161-0.396,0.246
		c-0.138,0.104-0.273,0.221-0.412,0.348l-0.237-0.222c0.147-0.146,0.307-0.28,0.476-0.396c0.147-0.105,0.309-0.201,0.482-0.285
		c0.175-0.085,0.352-0.127,0.532-0.127c0.146,0,0.289,0.031,0.426,0.095c0.138,0.063,0.257,0.174,0.356,0.332
		c0.101,0.159,0.183,0.374,0.246,0.643c0.063,0.27,0.096,0.609,0.096,1.021c0,0.412-0.063,1.094-0.183,2.044
		c-0.122,0.951-0.346,2.101-0.674,3.452l-0.332-0.062c0.18-0.762,0.327-1.442,0.442-2.045c0.117-0.603,0.212-1.146,0.285-1.631
		c-0.073-0.011-0.136-0.018-0.188-0.022c-0.055-0.006-0.102-0.01-0.144-0.01c-0.317,0-0.613,0.063-0.886,0.19
		c-0.275,0.127-0.513,0.285-0.714,0.476c-0.201,0.189-0.359,0.401-0.475,0.633c-0.117,0.234-0.174,0.45-0.174,0.649
		c0,0.19,0.073,0.349,0.221,0.476c0.148,0.127,0.391,0.19,0.729,0.19c0.232,0,0.512-0.037,0.84-0.111l0.063,0.317
		c-0.328,0.073-0.629,0.111-0.903,0.111c-0.453,0-0.778-0.096-0.975-0.285c-0.195-0.191-0.291-0.423-0.291-0.698
		c0-0.243,0.065-0.495,0.197-0.76c0.131-0.264,0.31-0.506,0.537-0.729c0.229-0.221,0.498-0.406,0.81-0.553
		c0.312-0.149,0.651-0.222,1.021-0.222L58.512,50.834z"/>
	<path fill="#FFFFFF" d="M63.881,53.495c0.19,0.211,0.388,0.367,0.595,0.467c0.205,0.101,0.399,0.149,0.577,0.149
		c0.275,0,0.502-0.1,0.682-0.299c0.179-0.201,0.27-0.497,0.27-0.889c0-0.368-0.106-0.817-0.316-1.346
		c-0.212-0.527-0.571-1.13-1.078-1.806c-0.157-0.211-0.264-0.42-0.317-0.625c-0.052-0.207-0.079-0.394-0.079-0.563
		c0-0.286,0.074-0.508,0.223-0.665c0.147-0.16,0.332-0.238,0.554-0.238c0.202,0,0.409,0.071,0.628,0.215
		c0.215,0.142,0.413,0.371,0.592,0.688l-0.27,0.158c-0.146-0.265-0.307-0.454-0.475-0.569c-0.17-0.117-0.327-0.175-0.476-0.175
		c-0.136,0-0.247,0.053-0.331,0.158c-0.086,0.105-0.128,0.248-0.128,0.428c0,0.137,0.018,0.291,0.056,0.46
		c0.037,0.168,0.129,0.348,0.277,0.538c0.507,0.686,0.877,1.314,1.108,1.885c0.232,0.569,0.35,1.056,0.35,1.456
		c0,0.497-0.122,0.872-0.365,1.125s-0.544,0.38-0.903,0.38c-0.169,0-0.385-0.053-0.647-0.157c-0.265-0.105-0.503-0.275-0.715-0.508
		L63.881,53.495z"/>
	<path fill="#FFFFFF" d="M71.816,49.045c0.18-0.181,0.341-0.307,0.482-0.382c0.144-0.072,0.267-0.11,0.373-0.11
		c0.137,0,0.239,0.063,0.309,0.19c0.069,0.126,0.104,0.296,0.104,0.506c0,0.361-0.098,0.808-0.293,1.341
		c-0.197,0.533-0.479,1.067-0.849,1.606c-0.433,0.687-0.792,1.172-1.077,1.457c-0.284,0.285-0.511,0.428-0.681,0.428
		c-0.19,0-0.32-0.143-0.388-0.428c-0.068-0.285-0.104-0.619-0.104-0.998v-0.269c-0.496,0.622-0.934,1.058-1.314,1.307
		c-0.379,0.248-0.629,0.371-0.744,0.371c-0.179,0-0.304-0.094-0.371-0.284c-0.069-0.191-0.104-0.439-0.104-0.746
		c0-0.231,0.015-0.484,0.047-0.76c0.03-0.273,0.074-0.562,0.127-0.861c0.054-0.301,0.112-0.605,0.183-0.912
		c0.068-0.307,0.139-0.601,0.213-0.887c0.169-0.665,0.364-1.347,0.586-2.043l0.301,0.095c-0.21,0.687-0.401,1.356-0.569,2.012
		c-0.074,0.286-0.145,0.578-0.215,0.879c-0.068,0.302-0.13,0.597-0.181,0.887c-0.054,0.291-0.097,0.573-0.127,0.848
		c-0.033,0.275-0.047,0.522-0.047,0.743c0,0.213,0.013,0.385,0.039,0.516c0.026,0.133,0.066,0.199,0.118,0.199
		c0.147,0,0.38-0.127,0.696-0.381c0.317-0.254,0.73-0.697,1.236-1.331l0.126,0.174c0.011-0.243,0.03-0.482,0.057-0.721
		c0.025-0.237,0.049-0.445,0.071-0.625c0.031-0.211,0.063-0.417,0.094-0.617l0.317,0.047c-0.042,0.253-0.079,0.518-0.11,0.791
		c-0.032,0.234-0.059,0.486-0.08,0.762c-0.021,0.274-0.031,0.543-0.031,0.808c0,0.296,0.01,0.556,0.031,0.776
		c0.021,0.222,0.069,0.332,0.143,0.332c0.116,0,0.293-0.131,0.53-0.396c0.238-0.265,0.557-0.713,0.958-1.346
		c0.359-0.519,0.632-1.028,0.816-1.529c0.185-0.502,0.277-0.916,0.277-1.244c0-0.252-0.033-0.379-0.095-0.379
		c-0.031,0-0.083,0.02-0.15,0.063c-0.068,0.042-0.14,0.089-0.214,0.144c-0.085,0.052-0.175,0.114-0.27,0.188L71.816,49.045z"/>
	<path fill="#FFFFFF" d="M75.096,54.002c-0.032,0.052-0.091,0.103-0.177,0.15c-0.083,0.047-0.178,0.07-0.284,0.07
		c-0.104,0-0.197-0.061-0.276-0.182s-0.143-0.285-0.19-0.491c-0.047-0.205-0.084-0.446-0.11-0.721
		c-0.027-0.273-0.039-0.565-0.039-0.871c0-0.612,0.026-1.192,0.079-1.742c0.052-0.548,0.131-1.031,0.237-1.449
		c0.105-0.417,0.234-0.749,0.387-0.997c0.154-0.248,0.336-0.372,0.548-0.372c0.21,0,0.382,0.116,0.515,0.348
		c0.131,0.233,0.234,0.486,0.309,0.761c0.084,0.326,0.138,0.69,0.158,1.094h-1.774c-0.053,0.338-0.089,0.722-0.11,1.155
		c-0.022,0.433-0.031,0.834-0.031,1.203c0,0.57,0.031,1.027,0.095,1.371c0.063,0.343,0.148,0.514,0.253,0.514
		c0.01,0,0.032-0.005,0.064-0.016c0.021-0.011,0.047-0.021,0.079-0.031s0.063-0.037,0.093-0.079L75.096,54.002z M75.919,49.282
		c-0.011-0.128-0.03-0.28-0.057-0.46c-0.025-0.18-0.065-0.348-0.118-0.507c-0.053-0.158-0.119-0.296-0.197-0.412
		c-0.08-0.116-0.173-0.174-0.277-0.174c-0.18,0-0.328,0.145-0.443,0.436c-0.117,0.29-0.217,0.663-0.302,1.117H75.919L75.919,49.282z
		"/>
	<path fill="#FFFFFF" d="M77.977,54.002c-0.032,0.052-0.09,0.103-0.173,0.15c-0.086,0.047-0.181,0.07-0.285,0.07
		c-0.107,0-0.198-0.061-0.278-0.182c-0.079-0.121-0.143-0.285-0.189-0.491c-0.048-0.205-0.086-0.446-0.111-0.721
		c-0.026-0.273-0.039-0.565-0.039-0.871c0-0.612,0.026-1.192,0.079-1.742c0.053-0.548,0.132-1.031,0.238-1.449
		c0.104-0.417,0.233-0.749,0.388-0.997c0.152-0.248,0.335-0.372,0.546-0.372c0.212,0,0.383,0.116,0.515,0.348
		c0.133,0.233,0.236,0.486,0.309,0.761c0.085,0.326,0.138,0.69,0.158,1.094h-1.774c-0.052,0.338-0.088,0.722-0.109,1.155
		c-0.021,0.433-0.031,0.834-0.031,1.203c0,0.57,0.031,1.027,0.094,1.371c0.063,0.343,0.148,0.514,0.255,0.514
		c0.01,0,0.032-0.005,0.063-0.016c0.02-0.011,0.047-0.021,0.078-0.031c0.032-0.011,0.065-0.037,0.097-0.079L77.977,54.002z
		 M78.801,49.282c-0.011-0.128-0.029-0.28-0.055-0.46c-0.027-0.18-0.067-0.348-0.119-0.507c-0.053-0.158-0.118-0.296-0.198-0.412
		s-0.172-0.174-0.277-0.174c-0.18,0-0.326,0.145-0.444,0.436c-0.116,0.29-0.216,0.663-0.3,1.117H78.801L78.801,49.282z"/>
	<path fill="#FFFFFF" d="M78.437,45.56c0.423,0,0.855-0.021,1.299-0.063c0.443-0.042,0.887-0.106,1.331-0.191
		c0.053-0.254,0.104-0.482,0.157-0.689c0.053-0.205,0.101-0.383,0.144-0.529c0.042-0.181,0.078-0.339,0.11-0.476l0.302,0.078
		c-0.032,0.128-0.069,0.271-0.111,0.429c-0.032,0.138-0.072,0.301-0.119,0.491s-0.098,0.401-0.15,0.633
		c0.411-0.072,0.818-0.155,1.221-0.245c0.4-0.09,0.784-0.183,1.155-0.277c0.602-0.146,1.148-0.271,1.64-0.372
		c0.491-0.099,0.885-0.15,1.181-0.15c0.611,0,0.918,0.217,0.918,0.649h-0.317c0-0.221-0.202-0.333-0.601-0.333
		c-0.254,0-0.57,0.037-0.943,0.112c-0.376,0.072-0.792,0.166-1.251,0.275c-0.46,0.112-0.95,0.229-1.473,0.35
		c-0.523,0.12-1.06,0.235-1.609,0.34c-0.114,0.519-0.236,1.093-0.363,1.727c-0.126,0.635-0.244,1.275-0.356,1.925
		c-0.11,0.648-0.204,1.28-0.277,1.893s-0.111,1.156-0.111,1.631c0,0.359,0.019,0.645,0.057,0.856
		c0.036,0.211,0.098,0.316,0.181,0.316c0.054,0,0.097-0.012,0.128-0.032l0.157,0.27c-0.095,0.053-0.188,0.079-0.285,0.079
		c-0.199,0-0.342-0.134-0.426-0.403c-0.086-0.27-0.129-0.632-0.129-1.086c0-0.464,0.036-0.999,0.105-1.606
		c0.067-0.607,0.157-1.233,0.269-1.877c0.11-0.645,0.229-1.281,0.355-1.909s0.248-1.206,0.364-1.735
		c-0.432,0.075-0.863,0.136-1.291,0.184c-0.427,0.047-0.848,0.065-1.259,0.055V45.56L78.437,45.56z"/>
	<path fill="#FFFFFF" d="M85.152,45.56c0.423,0,0.854-0.021,1.299-0.063c0.443-0.042,0.887-0.106,1.33-0.191
		c0.052-0.254,0.104-0.482,0.159-0.689c0.053-0.205,0.1-0.383,0.142-0.529c0.043-0.181,0.079-0.339,0.11-0.476l0.302,0.078
		c-0.031,0.128-0.069,0.271-0.111,0.429c-0.031,0.138-0.071,0.301-0.118,0.491s-0.098,0.401-0.15,0.633
		c0.412-0.072,0.817-0.155,1.22-0.245c0.399-0.09,0.786-0.183,1.156-0.277c0.601-0.146,1.148-0.271,1.638-0.372
		c0.492-0.099,0.886-0.15,1.182-0.15c0.612,0,0.919,0.217,0.919,0.649h-0.317c0-0.221-0.201-0.333-0.602-0.333
		c-0.254,0-0.568,0.037-0.943,0.112c-0.374,0.072-0.792,0.166-1.25,0.275c-0.461,0.112-0.952,0.229-1.475,0.35
		c-0.522,0.12-1.058,0.235-1.607,0.34c-0.115,0.519-0.237,1.093-0.364,1.727c-0.127,0.635-0.245,1.275-0.355,1.925
		c-0.111,0.648-0.203,1.28-0.277,1.893s-0.11,1.156-0.11,1.631c0,0.359,0.018,0.645,0.055,0.856
		c0.037,0.211,0.098,0.316,0.183,0.316c0.053,0,0.095-0.012,0.127-0.032l0.158,0.27c-0.095,0.053-0.19,0.079-0.285,0.079
		c-0.201,0-0.343-0.134-0.429-0.403c-0.083-0.27-0.126-0.632-0.126-1.086c0-0.464,0.034-0.999,0.104-1.606
		c0.068-0.607,0.158-1.233,0.269-1.877c0.11-0.645,0.229-1.281,0.356-1.909c0.128-0.628,0.248-1.206,0.365-1.735
		c-0.435,0.075-0.864,0.136-1.292,0.184c-0.428,0.047-0.847,0.065-1.259,0.055V45.56L85.152,45.56z"/>
	<path fill="#FFFFFF" d="M90.347,48.362c0.147-0.073,0.296-0.11,0.444-0.11c0.316,0,0.546,0.159,0.688,0.476
		c0.143,0.317,0.214,0.723,0.214,1.22c0,0.412-0.05,0.854-0.151,1.33c-0.099,0.475-0.244,0.916-0.435,1.322
		c-0.19,0.407-0.417,0.745-0.681,1.014c-0.265,0.271-0.56,0.404-0.887,0.404c-0.275,0-0.474-0.182-0.595-0.547
		c-0.122-0.364-0.182-0.815-0.182-1.354c0-0.442,0.038-0.912,0.118-1.408c0.08-0.497,0.192-0.973,0.341-1.426
		c0.148-0.454,0.328-0.86,0.538-1.22c0.211-0.358,0.454-0.613,0.729-0.761l0.158,0.27c-0.243,0.138-0.463,0.371-0.657,0.704
		c-0.196,0.334-0.362,0.713-0.498,1.141c-0.138,0.428-0.241,0.879-0.311,1.354c-0.068,0.476-0.103,0.924-0.103,1.346
		c0,0.454,0.038,0.831,0.111,1.133c0.073,0.301,0.189,0.451,0.349,0.451c0.284,0,0.541-0.123,0.768-0.371s0.421-0.56,0.578-0.936
		c0.158-0.375,0.279-0.781,0.364-1.22c0.086-0.438,0.127-0.848,0.127-1.227c0-0.402-0.045-0.73-0.135-0.99
		c-0.09-0.259-0.24-0.388-0.45-0.388c-0.107,0-0.213,0.021-0.317,0.063L90.347,48.362z"/>
	<path fill="#FFFFFF" d="M93.911,48.362c0.147-0.073,0.295-0.11,0.442-0.11c0.317,0,0.548,0.159,0.689,0.476
		c0.143,0.317,0.214,0.723,0.214,1.22c0,0.412-0.05,0.854-0.15,1.33c-0.101,0.475-0.245,0.916-0.436,1.322
		c-0.19,0.407-0.417,0.745-0.682,1.014c-0.263,0.271-0.559,0.404-0.887,0.404c-0.274,0-0.473-0.182-0.593-0.547
		c-0.122-0.364-0.184-0.815-0.184-1.354c0-0.442,0.04-0.912,0.119-1.408c0.08-0.497,0.193-0.973,0.341-1.426
		c0.148-0.454,0.327-0.86,0.538-1.22c0.212-0.358,0.454-0.613,0.73-0.761l0.157,0.27c-0.243,0.138-0.463,0.371-0.658,0.704
		c-0.193,0.334-0.36,0.713-0.499,1.141c-0.136,0.428-0.239,0.879-0.308,1.354c-0.069,0.476-0.104,0.924-0.104,1.346
		c0,0.454,0.038,0.831,0.111,1.133c0.073,0.301,0.19,0.451,0.348,0.451c0.286,0,0.542-0.123,0.769-0.371s0.42-0.56,0.578-0.936
		c0.159-0.375,0.279-0.781,0.365-1.22c0.083-0.438,0.127-0.848,0.127-1.227c0-0.402-0.046-0.73-0.136-0.99
		c-0.089-0.259-0.239-0.388-0.452-0.388c-0.104,0-0.211,0.021-0.315,0.063L93.911,48.362z"/>
	<path fill="#FFFFFF" d="M95.003,45.56c0.424,0,0.856-0.021,1.299-0.063c0.444-0.042,0.887-0.106,1.331-0.191
		c0.053-0.254,0.105-0.482,0.158-0.689c0.053-0.205,0.1-0.383,0.143-0.529c0.042-0.181,0.078-0.339,0.111-0.476l0.301,0.078
		c-0.032,0.128-0.069,0.271-0.11,0.429c-0.032,0.138-0.072,0.301-0.12,0.491c-0.047,0.19-0.098,0.401-0.15,0.633
		c0.412-0.072,0.817-0.155,1.221-0.245c0.4-0.09,0.785-0.183,1.156-0.277c0.602-0.146,1.147-0.271,1.639-0.372
		c0.491-0.099,0.885-0.15,1.181-0.15c0.611,0,0.918,0.217,0.918,0.649h-0.317c0-0.221-0.2-0.333-0.601-0.333
		c-0.254,0-0.569,0.037-0.942,0.112c-0.375,0.072-0.793,0.166-1.252,0.275c-0.459,0.112-0.95,0.229-1.474,0.35
		c-0.522,0.12-1.059,0.235-1.606,0.34c-0.116,0.519-0.237,1.093-0.364,1.727c-0.127,0.635-0.245,1.275-0.356,1.925
		c-0.111,0.648-0.204,1.28-0.278,1.893c-0.073,0.612-0.11,1.156-0.11,1.631c0,0.359,0.018,0.645,0.056,0.856
		c0.037,0.211,0.098,0.316,0.182,0.316c0.055,0,0.096-0.012,0.126-0.032l0.16,0.27c-0.096,0.053-0.19,0.079-0.286,0.079
		c-0.2,0-0.343-0.134-0.427-0.403s-0.127-0.632-0.127-1.086c0-0.464,0.034-0.999,0.104-1.606c0.068-0.607,0.158-1.233,0.269-1.877
		c0.111-0.645,0.23-1.281,0.355-1.909c0.128-0.628,0.248-1.206,0.365-1.735c-0.435,0.075-0.863,0.136-1.292,0.184
		c-0.426,0.047-0.845,0.065-1.259,0.055V45.56L95.003,45.56z"/>
	<path fill="#FFFFFF" d="M98.805,53.368l1.521-10.564l0.317,0.048l-0.761,5.354c0.042-0.043,0.111-0.106,0.205-0.19
		c0.096-0.084,0.207-0.166,0.334-0.245c0.127-0.08,0.263-0.147,0.411-0.207c0.147-0.057,0.296-0.087,0.442-0.087
		c0.139,0,0.273,0.031,0.404,0.096c0.133,0.063,0.246,0.171,0.342,0.325c0.094,0.152,0.171,0.353,0.229,0.602
		c0.059,0.247,0.089,0.558,0.089,0.925c0,0.562-0.073,1.297-0.214,2.211c-0.144,0.913-0.399,2.077-0.77,3.492l-0.301-0.078
		c0.359-1.395,0.609-2.543,0.753-3.446c0.142-0.903,0.214-1.628,0.214-2.179c0-0.622-0.074-1.05-0.224-1.282
		c-0.146-0.231-0.32-0.349-0.522-0.349c-0.146,0-0.295,0.04-0.442,0.118c-0.148,0.08-0.279,0.162-0.396,0.247
		c-0.138,0.105-0.27,0.221-0.396,0.349l-0.174-0.159l-0.713,5.085L98.805,53.368z"/>
</g>
</svg>
